<?xml version="1.0" encoding="UTF-8" standalone="no"?>
<!DOCTYPE svg PUBLIC "-//W3C//DTD SVG 1.1//EN" "http://www.w3.org/Graphics/SVG/1.1/DTD/svg11.dtd">
<!-- Generated by Microsoft Visio, SVG Export Search.svg Page-1 -->
<svg xmlns="http://www.w3.org/2000/svg" xmlns:xlink="http://www.w3.org/1999/xlink" xmlns:ev="http://www.w3.org/2001/xml-events"
		xmlns:v="http://schemas.microsoft.com/visio/2003/SVGExtensions/" width="0.416774in" height="0.4201in"
		viewBox="0 0 30.0077 30.2472" xml:space="preserve" color-interpolation-filters="sRGB" class="st5">
	<v:documentProperties v:langID="1033" v:metric="true" v:viewMarkup="false"/>

	<style type="text/css">
	<![CDATA[
		.st1 {fill:#556a8a;stroke:none;stroke-width:0.75}
		.st2 {fill:#ffffff;stroke:none;stroke-width:0.75}
		.st3 {fill:#e5e5e5;stroke:none;stroke-width:0.75}
		.st4 {fill:none;stroke:#556a8a;stroke-width:1.5}
		.st5 {fill:none;fill-rule:evenodd;font-size:12px;overflow:visible;stroke-linecap:square;stroke-miterlimit:3}
	]]>
	</style>

	<g v:mID="0" v:index="1" v:groupContext="foregroundPage">
		<title>Page-1</title>
		<v:pageProperties v:drawingScale="0.0393701" v:pageScale="0.0393701" v:drawingUnits="24" v:shadowOffsetX="8.50394"
				v:shadowOffsetY="-8.50394"/>
		<g id="group14-1" transform="translate(1.5,7.10543E-15)" v:mID="14" v:groupContext="group">
			<title>Search</title>
			<g id="shape15-2" v:mID="15" v:groupContext="shape" transform="translate(4.46244,8.85921) rotate(-45)">
				<title>rect7533</title>
				<path d="M0 28.37 A1.87903 1.87903 -180 0 0 1.88 30.25 A1.87903 1.87903 -180 0 0 3.76 28.37 L3.76 12.73 A1.87903
							 1.87903 -180 0 0 1.88 10.85 A1.87903 1.87903 -180 0 0 -0 12.73 L0 28.37 Z" class="st1"/>
			</g>
			<g id="shape16-4" v:mID="16" v:groupContext="shape" transform="translate(-1.43885E-13,-9.07515)">
				<title>path7535</title>
				<path d="M9.82 10.58 A9.8318 9.8318 -180 0 0 0 20.4 C0 20.57 0 20.74 0 20.91 A9.8177 9.8177 -180 0 0 19.61 20.91
							 C19.61 20.74 19.61 20.57 19.61 20.39 A9.83649 9.83649 -180 0 0 9.82 10.58 Z" class="st2"/>
			</g>
			<g id="shape17-6" v:mID="17" v:groupContext="shape" transform="translate(0.0140924,-18.4128)">
				<title>path7537</title>
				<path d="M19.63 29.73 C19.63 29.9 19.63 30.08 19.63 30.25 L0 30.25 C0 30.08 0 29.9 0 29.74 A9.82005 9.82005 0 0 1
							 19.64 29.74 L19.63 29.73 Z" class="st3"/>
			</g>
			<g id="shape18-8" v:mID="18" v:groupContext="shape" transform="translate(1.43885E-13,-11.989)">
				<title>path7539</title>
				<path d="M-0 23.31 A9.8177 9.8177 -180 1 0 9.82 13.49 A9.8318 9.8318 -180 0 0 0 23.31 Z" class="st4"/>
			</g>
		</g>
	</g>
</svg>
